<?xml version="1.0" encoding="UTF-8" standalone="no"?>
<!-- Created with Inkscape (http://www.inkscape.org/) -->

<svg
   version="1.1"
   id="svg1"
   width="528"
   height="184"
   viewBox="0 0 528 184"
   xmlns="http://www.w3.org/2000/svg"
   xmlns:svg="http://www.w3.org/2000/svg">
  <defs
     id="defs1" />
  <g
     id="g1">
    <path
       id="path1"
       d="m 1774.92,1375.31 h -179.1 l 711.06,-888.201 h 181.24 z"
       style="fill:#69be28;fill-opacity:1;fill-rule:evenodd;stroke:none"
       transform="matrix(0.13333333,0,0,-0.13333333,0,184)" />
    <path
       id="path2"
       d="m 1011.99,1377.81 v -145.86 l 337.39,0.04 c 44.45,-0.11 80.31,-36.05 80.39,-80.08 -0.08,-44.14 -35.9,-79.96 -80.39,-80.07 h -227 l -0.04,-0.43 C 963.32,1068.83 835.16,939.449 835.121,779.879 835.16,618.711 965.941,488.32 1127.19,488.32 h 318.55 c -41.17,49.141 -58.01,108.629 -64.84,145.821 h -253.71 c -80.94,0.16 -146.1,65.429 -146.249,145.738 0.149,80.32 65.309,145.633 146.249,145.781 v 0.36 h 222.19 c 29.37,0.031 57.38,5.781 83.16,15.968 V 680.699 h 142.77 c 0.04,77.539 0.28,466.601 0.28,471.211 -0.08,124.89 -101.37,225.86 -226.21,225.9 z m 2061.33,-1.36 V 837.461 c 0,-118.16 -95.78,-213.941 -213.94,-213.941 -118.17,0 -214.89,98.902 -214.93,217.031 h 0.08 v 214.099 h -136.41 c 0.16,-51.64 0.67,-215.822 0.67,-217.189 0,-193.59 156.95,-350.551 350.55,-350.551 80.66,0 154.76,27.539 213.98,73.289 V 360.551 c 0,-118.172 -95.78,-213.949 -213.94,-213.949 -0.79,0 -1.53,0.039 -2.35,0.039 -63.59,1.371 -120.31,30.781 -157.97,76.519 -0.04,0 -0.04,-0.039 -0.04,-0.039 l -173.08,215.508 h -179.1 l 234.49,-292.93 c 0,0 108.47,-135.699 278.01,-135.699 193.59,0 350.58,156.949 350.58,350.551 0,1.289 -0.15,1015.899 -0.15,1015.899 z m 454.26,-0.24 c -124.53,-0.16 -224.06,-101.72 -224.3,-225.9 0.24,-124.18 99.77,-225.822 224.3,-225.97 l 73.44,-0.391 c 78.12,-0.16 142.5,-64.219 142.53,-144.808 -0.03,-80.59 -64.41,-144.692 -142.53,-144.84 H 3295.23 V 487.699 h 305.79 c 160.31,0.11 288.86,131.051 289.14,291.442 -0.28,158.789 -126.33,288.519 -284.42,291.209 l -78.16,0.59 c -42.27,0.11 -77.66,34.88 -77.7,79.37 0.04,44.34 35.39,79.18 77.7,79.26 h 147.38 v 146.6 z m -1139.3,-0.78 c -83.71,0 -159.02,-42.81 -205.19,-117.58 L 1774.45,613.551 c -16.48,-23.321 -46.79,-51.051 -95.9,-51.051 -70.11,0 -98.59,63.09 -101.83,70.82 h -143.4 l 0.08,-0.351 -0.43,0.351 h -0.98 c 1.8,-11.91 28.05,-163.359 190.04,-207.5 30.39,-8.281 61.41,-7.66 66.02,-7.66 h 0.58 c 69.34,0 133.17,29.539 179.03,82.539 0,0 24.8,31.641 33.28,46.801 l 400.82,630.51 c 17.19,24.33 42.65,41.68 71.21,49.26 7.89,1.83 16.64,2.93 25.39,2.93 8.48,0 16.95,-0.98 25.51,-3.09 47.15,-11.8 79.53,-52.77 83.4,-99.38 l 1.87,-23.82 h 138.05 l -1.1,26.99 c -4.33,102.42 -70.58,194.76 -169.57,229.33 h 0.04 c -4.33,1.53 -41.44,15.2 -88.28,15.2 z M 2.76953,1374.69 V 1002.85 L 2.62109,487.77 H 146.762 v 741.92 h 228.789 v -0.08 c 125.187,-0.27 226.64,-101.84 226.64,-227.11 l 0.039,-514.379 146.211,1.328 c 0,0.039 -1.211,511.291 -1.211,513.051 0,205.35 -166.371,371.84 -371.64,372.15 v 0.04 z M 3378.28,325.16 c -28.32,0 -43.71,-12.699 -43.71,-32.43 0,-22.031 18.44,-28.98 34.57,-34.718 15.94,-5.742 33.13,-7.352 33.13,-22.032 0,-10.199 -6.45,-19.89 -25.98,-19.89 -15.94,0 -23.63,6.101 -29.53,10.75 -0.9,0.539 -1.99,0.539 -2.5,-0.36 l -8.44,-10.582 c -0.55,-0.699 -0.35,-1.949 0.35,-2.5 8.99,-6.796 20.24,-13.238 40.16,-13.238 26.13,0 43.16,13.789 43.16,35.82 -0.04,25.27 -25.82,31.872 -37.26,35.821 -14.69,5.039 -30.47,7.687 -30.47,20.929 0,6.84 3.4,16.489 26.52,16.489 12.34,0 21.13,-5.547 25.24,-8.399 0.74,-0.55 1.99,-0.351 2.5,0.551 l 7.34,11.09 c 0.55,0.898 0.35,1.949 -0.51,2.5 -7.19,4.648 -18.63,10.199 -34.57,10.199 z m 217.03,-25.59 c -1.09,0 -1.79,-0.699 -1.79,-1.8 v -15.579 h -9.65 c -1.1,0 -1.8,-0.711 -1.8,-1.8 v -10.743 c 0,-1.097 0.7,-1.796 1.8,-1.796 h 9.65 v -40.661 c 0,-15.589 6.64,-27.031 25.97,-27.031 9.85,0 16.84,4.102 22.93,9.641 0.7,0.75 0.9,2 0.16,2.699 l -7.7,7.539 c -0.7,0.512 -1.79,0.742 -2.5,0 -2.69,-2.5 -6.79,-6.09 -12.5,-6.09 -3.24,0 -10.43,0.153 -10.43,14.332 v 39.571 h 24.53 c 1.1,0 1.8,0.699 1.8,1.796 v 10.743 c 0,1.089 -0.7,1.8 -1.8,1.8 h -24.53 v 15.579 c 0,1.101 -0.7,1.8 -1.79,1.8 z M 1495.59,288.75 c -0.24,-0.039 -0.51,-0.121 -0.75,-0.16 1.02,-0.699 2.04,-1.442 3.05,-2.141 -0.78,0.781 -1.52,1.52 -2.3,2.301 z m 840.74,-1.762 -0.86,-1.129 c 0.19,0.082 0.35,0.161 0.55,0.231 0.07,0.281 0.19,0.629 0.31,0.898 z m 1205.82,-3.199 c -18.44,0 -29.03,-8.238 -29.03,-21.68 0,-14.339 11.29,-20.039 22.39,-25.078 9.33,-4.301 18.44,-6.801 18.44,-13.793 0,-6.597 -6.06,-9.136 -13.95,-9.136 -7.19,0 -12.73,3.398 -15.94,6.289 -0.74,0.699 -1.99,0.507 -2.5,0 l -8.24,-8.051 c -0.7,-0.738 -0.7,-1.988 0.2,-2.539 6.05,-4.84 13.24,-9.641 27.57,-9.641 17.35,0 28.83,9.141 28.83,23.981 0,15.937 -14.69,20.429 -26.87,26.371 -7,3.199 -13.79,6.047 -13.79,11.09 0,4.296 3.2,8.238 12.69,8.238 7.19,0 11.64,-2.141 14.69,-3.942 0.74,-0.546 1.8,-0.546 2.5,0.153 l 7.74,8.25 c 0.7,0.738 1.05,1.789 0,2.5 -5.9,3.937 -14.34,6.988 -24.73,6.988 z m 150.27,0 c -11.99,0 -20.94,-3.75 -27.93,-11.09 -7.19,-7.187 -11.64,-17.539 -11.64,-29.73 0,-24.379 17.54,-42.809 42.27,-42.809 13.24,0 21.83,3.59 29.92,9.641 0.7,0.551 0.7,1.801 0,2.539 l -8.44,8.558 c -0.7,0.743 -1.4,0.903 -2.65,0 -4.3,-2.847 -10.43,-5.507 -17.74,-5.507 -15.78,-0.192 -24.73,10.039 -25.98,20.937 h 58.21 c 1.05,0 1.79,0.703 1.79,1.793 l 0.16,3.949 c 0,13.442 -3.94,23.09 -10.55,30.078 -6.09,6.641 -15.43,11.641 -27.42,11.641 z m 102.11,0 c -8.98,0 -16.13,-2.148 -22.07,-6.949 v 3.551 c 0,1.089 -0.7,1.8 -1.76,1.8 h -12.38 c -1.05,0 -1.76,-0.711 -1.76,-1.8 v -76.84 c 0,-1.051 0.71,-1.789 1.76,-1.789 h 12.38 c 1.06,0 1.76,0.738 1.76,1.789 v 41.219 c 0,5.351 0.59,10.742 2.19,13.781 2.85,5.359 8.24,9.687 16.48,9.687 10.2,0 15.94,-6.129 15.94,-19.367 v -45.32 c 0,-1.051 0.7,-1.789 1.8,-1.789 h 12.34 c 1.09,0 1.8,0.738 1.8,1.789 v 42.82 c 0,4.84 0.7,8.938 2.15,11.988 3.04,6.641 9.49,9.879 17.18,9.879 7.89,0 15.24,-4.687 15.24,-19.179 v -45.508 c 0,-1.051 0.7,-1.789 1.8,-1.789 h 12.34 c 1.09,0 1.8,0.738 1.8,1.789 v 47.109 c 0,22.578 -14.89,33.129 -30.82,33.129 -17.19,0 -24.89,-8.75 -26.88,-10.348 -3.55,4.258 -11.99,10.348 -21.29,10.348 z m 129.81,0 c -18.44,0 -28.99,-8.238 -28.99,-21.68 0,-14.339 11.29,-20.039 22.38,-25.078 9.3,-4.301 18.44,-6.801 18.44,-13.793 0,-6.597 -6.09,-9.136 -13.98,-9.136 -7.15,0 -12.7,3.398 -15.9,6.289 -0.74,0.699 -1.99,0.507 -2.54,0 l -8.24,-8.051 c -0.71,-0.738 -0.71,-1.988 0.19,-2.539 6.1,-4.84 13.25,-9.641 27.58,-9.641 17.38,0 28.83,9.141 28.83,23.981 0,15.937 -14.69,20.429 -26.88,26.371 -6.95,3.199 -13.78,6.047 -13.78,11.09 0,4.296 3.24,8.238 12.73,8.238 7.15,0 11.64,-2.141 14.69,-3.942 0.7,-0.546 1.79,-0.546 2.5,0.153 l 7.69,8.25 c 0.71,0.738 1.1,1.789 0,2.5 -5.9,3.937 -14.33,6.988 -24.72,6.988 z m -495.55,-1.598 c -1.45,0 -1.45,-1.453 -1.09,-2.5 15.78,-37.269 9.68,-22.39 32.77,-79.179 -5,-16.84 -15.94,-23.992 -25.08,-23.992 -1.05,0 -1.76,-0.7 -1.76,-1.79 v -12.191 c 0,-1.09 0.71,-1.801 1.76,-1.801 21.33,1.25 32.42,13.282 40.66,37.071 l 28.52,81.882 c 0.35,1.047 0.35,2.5 -1.29,2.5 h -13.94 c -1.1,0 -2,0.188 -2.35,-1.25 -13.63,-42.82 -10.04,-32.929 -18.63,-59.461 -12.15,31.329 -7.7,21.329 -22.38,59.461 -0.55,1.438 -1.25,1.25 -2.35,1.25 z M 3692.07,270 c 6.09,0 10.55,-1.949 14.49,-5.391 3.6,-3.199 6.64,-8.05 6.8,-13.949 h -43.13 c 2.15,11.641 11.65,19.34 21.84,19.34 z M 1437.85,208.828 c -0.04,-0.707 -0.08,-1.527 -0.12,-2.269 0.82,0.472 1.61,0.941 2.39,1.492 -0.78,0.269 -1.64,0.539 -2.27,0.777 z"
       style="fill:#616365;fill-opacity:1;fill-rule:evenodd;stroke:none"
       transform="matrix(0.13333333,0,0,-0.13333333,0,184)" />
    <path
       id="path3"
       d="M 1.5814472,-2.8125e-5 H 3.3861347 V -10.335966 h 0.035156 L 9.1048847,-2.8125e-5 H 11.413478 V -12.562528 H 9.6087909 V -2.4492469 H 9.5736347 L 4.0306659,-12.562528 H 1.5814472 Z M 14.952541,-7.0898719 c 0.691406,-0.5742187 1.710937,-0.9375 2.671875,-0.9375 1.6875,0 2.261719,0.8085938 2.261719,2.390625 -0.667969,-0.035156 -1.125,-0.035156 -1.792969,-0.035156 -1.746094,0 -4.265625,0.7265625 -4.265625,3.0234375 0,2.00390622 1.382812,2.85937497 3.363281,2.85937497 1.546875,0 2.449219,-0.84375 2.847656,-1.39453127 h 0.03516 V -2.8125e-5 h 1.582031 C 21.62051,-0.26955938 21.585353,-0.76174688 21.585353,-1.8047156 v -3.796875 c 0,-2.4960938 -1.066406,-3.796875 -3.691406,-3.796875 -1.171875,0 -2.179687,0.3632812 -3.023437,0.8671875 z m 4.933594,3.5273438 c 0,1.3710937 -0.878907,2.4140625 -2.554688,2.4140625 -0.773437,0 -1.710937,-0.5273438 -1.710937,-1.5 0,-1.6171875 2.273437,-1.7578125 3.1875,-1.7578125 0.363281,0 0.726562,0.035156 1.078125,0.035156 z M 24.421291,-2.8125e-5 H 26.12051 V -4.6289344 c 0,-1.7109375 0.679687,-3.3984375 2.414062,-3.3984375 1.359375,0 1.628906,1.4179688 1.628906,2.5546875 V -2.8125e-5 h 1.699219 V -4.6289344 c 0,-1.7109375 0.679688,-3.3984375 2.414063,-3.3984375 1.359375,0 1.628906,1.4179688 1.628906,2.5546875 V -2.8125e-5 h 1.699219 V -5.8828406 c 0,-2.0039063 -0.84375,-3.515625 -3.1875,-3.515625 -0.832032,0 -2.214844,0.46875 -2.847657,1.78125 -0.480468,-1.2421875 -1.546875,-1.78125 -2.613281,-1.78125 -1.347656,0 -2.261719,0.4921875 -2.90625,1.546875 h -0.03516 v -1.3242188 h -1.59375 z M 48.567775,-9.1758094 h -1.699218 v 4.2421875 c 0,2.2382813 -0.855469,3.7851563 -2.789063,3.7851563 -1.476562,-0.09375 -1.945312,-1.1367188 -1.945312,-3.28125 v -4.7460938 h -1.6875 v 5.4492188 c 0,2.4609375 1.066406,3.93749997 3.433593,3.93749997 1.277344,0 2.507813,-0.62109375 3.011719,-1.66406247 h 0.03516 V -2.8125e-5 h 1.640625 z m 2.876953,9.175781275 h 1.6875 V -4.1719031 c 0,-2.3085938 0.996094,-3.75 2.507813,-3.75 0.28125,0 0.632812,0.035156 0.9375,0.1640625 v -1.5117188 c -0.363281,-0.070312 -0.621094,-0.1289062 -1.125,-0.1289062 -0.972656,0 -1.933594,0.6914062 -2.390625,1.640625 h -0.03516 v -1.4179688 h -1.582032 z m 12.169922,0 h 1.792969 V -12.562528 H 63.61465 Z m 4.839844,0 h 1.6875 V -4.2422156 c 0,-2.2382813 0.867188,-3.7851563 2.789063,-3.7851563 1.476562,0.09375 1.945312,1.1367188 1.945312,3.2695313 V -2.8125e-5 h 1.699219 V -5.4492469 c 0,-2.4726562 -1.066406,-3.9492187 -3.445313,-3.9492187 -1.277343,0 -2.496093,0.6328125 -3,1.6757812 h -0.03516 v -1.453125 H 68.454494 Z M 78.679103,-0.29299688 c 0.773438,0.421875 1.652344,0.50390625 2.519532,0.50390625 1.640625,0 3.199218,-0.890625 3.199218,-2.85937497 0,-2.9296875 -3.972656,-2.390625 -3.972656,-4.265625 0,-0.75 0.75,-1.1132813 1.617188,-1.1132813 0.398437,0 1.40625,0.234375 1.78125,0.46875 l 0.140625,-1.4765625 c -0.65625,-0.1992187 -1.3125,-0.3632812 -2.097657,-0.3632812 -1.816406,0 -3.246093,0.9257812 -3.246093,2.8242187 0,2.578125 3.984375,2.4375 3.984375,4.1132813 0,0.984375 -0.960938,1.3125 -1.734375,1.3125 -0.480469,0 -1.441407,-0.2226563 -2.097657,-0.65625 z M 91.329494,-9.1758094 h -2.425781 v -2.6718746 l -1.699219,0.539062 v 2.1328126 h -2.0625 v 1.359375 h 2.0625 v 5.3671875 c 0,1.83984377 1.089844,2.66015627 2.835938,2.66015627 0.539062,0 1.054687,-0.140625 1.429687,-0.24609375 V -1.4765906 c -0.246094,0.1640625 -0.621094,0.328125 -1.148437,0.328125 -0.773438,0 -1.417969,-0.5742188 -1.417969,-1.640625 v -5.0273438 h 2.425781 z m 2.337891,9.175781275 h 1.699218 V -9.1758094 H 93.667385 Z M 95.472072,-13.136747 h -1.910156 v 1.910156 h 1.910156 z m 7.863278,3.9609376 h -2.42578 v -2.6718746 l -1.699217,0.539062 v 2.1328126 h -2.0625 v 1.359375 h 2.0625 v 5.3671875 c 0,1.83984377 1.089847,2.66015627 2.835937,2.66015627 0.53906,0 1.05469,-0.140625 1.42969,-0.24609375 V -1.4765906 c -0.2461,0.1640625 -0.6211,0.328125 -1.14844,0.328125 -0.77344,0 -1.41797,-0.5742188 -1.41797,-1.640625 v -5.0273438 h 2.42578 z m 10.24805,0 h -1.69922 v 4.2421875 c 0,2.2382813 -0.85547,3.7851563 -2.78906,3.7851563 -1.47656,-0.09375 -1.94531,-1.1367188 -1.94531,-3.28125 v -4.7460938 h -1.6875 v 5.4492188 c 0,2.4609375 1.0664,3.93749997 3.43359,3.93749997 1.27734,0 2.50781,-0.62109375 3.01172,-1.66406247 h 0.0352 V -2.8125e-5 h 1.64062 z m 7.75195,0 h -2.42578 v -2.6718746 l -1.69922,0.539062 v 2.1328126 h -2.0625 v 1.359375 h 2.0625 v 5.3671875 c 0,1.83984377 1.08985,2.66015627 2.83594,2.66015627 0.53906,0 1.05469,-0.140625 1.42969,-0.24609375 V -1.4765906 c -0.2461,0.1640625 -0.6211,0.328125 -1.14844,0.328125 -0.77344,0 -1.41797,-0.5742188 -1.41797,-1.640625 v -5.0273438 h 2.42578 z m 9.15821,7.1015625 c -0.41016,0.3515625 -1.69922,0.9257813 -2.82422,0.9257813 -1.59375,0 -3.02344,-1.2421875 -3.02344,-3.0585938 h 6.55078 c 0,-2.953125 -0.98437,-5.1914062 -4.04297,-5.1914062 -2.58984,0 -4.30078,1.9335937 -4.30078,4.640625 0,2.9882812 1.48828,4.96874997 4.7461,4.96874997 1.51171,0 2.25,-0.3515625 2.89453,-0.5859375 z m -5.84766,-3.3984375 c 0.12891,-1.1835937 0.80859,-2.5546875 2.47266,-2.5546875 1.45312,0 2.28515,1.1484375 2.28515,2.5546875 z m 14.92969,5.472656275 h 1.6875 V -7.8164344 h 2.42578 v -1.359375 h -2.42578 v -0.9960936 c 0,-1.242188 0.17578,-2.179688 1.64062,-2.179688 0.28125,0 0.60938,0.03516 0.8086,0.117188 l 0.0703,-1.371094 c -0.33984,-0.05859 -0.70313,-0.105469 -1.13672,-0.105469 -2.49609,0 -3.07031,1.453125 -3.07031,3.679688 v 0.8554686 h -2.16797 v 1.359375 h 2.16797 z M 144.8666,-4.5937781 c 0,2.6367187 1.89844,4.80468747 4.67578,4.80468747 2.75391,0 4.66407,-2.16796877 4.66407,-4.80468747 0,-2.7890625 -1.875,-4.8046875 -4.66407,-4.8046875 -2.8125,0 -4.67578,2.015625 -4.67578,4.8046875 z m 1.79297,0 c 0,-1.7460938 1.06641,-3.4335938 2.88281,-3.4335938 1.80469,0 2.85938,1.6875 2.85938,3.4335938 0,1.640625 -0.87891,3.4453125 -2.85938,3.4453125 -1.99218,0 -2.88281,-1.8046875 -2.88281,-3.4453125 z m 9.81446,4.593749975 h 1.6875 V -4.1719031 c 0,-2.3085938 0.99609,-3.75 2.50781,-3.75 0.28125,0 0.63281,0.035156 0.9375,0.1640625 v -1.5117188 c -0.36328,-0.070312 -0.6211,-0.1289062 -1.125,-0.1289062 -0.97266,0 -1.9336,0.6914062 -2.39063,1.640625 h -0.0351 v -1.4179688 h -1.58203 z M 177.45938,-12.234403 c -0.89063,-0.398438 -1.85157,-0.550781 -2.82422,-0.550781 -3.83203,0 -6.64453,2.578125 -6.64453,6.4453121 0,3.9960938 2.64843,6.55078127 6.63281,6.55078127 0.73828,0 1.89844,-0.046875 2.85937,-0.4453125 l -0.10546,-1.74609377 c -0.63282,0.375 -1.83985,0.609375 -2.74219,0.609375 -2.61328,0 -4.73438,-1.9570312 -4.73438,-4.9101562 0,-2.8242188 1.9336,-4.9101559 4.82813,-4.9101559 0.91406,0 1.79297,0.234375 2.58984,0.703125 z m 1.41211,7.6406249 c 0,2.6367187 1.89843,4.80468747 4.67578,4.80468747 2.7539,0 4.66406,-2.16796877 4.66406,-4.80468747 0,-2.7890625 -1.875,-4.8046875 -4.66406,-4.8046875 -2.8125,0 -4.67578,2.015625 -4.67578,4.8046875 z m 1.79296,0 c 0,-1.7460938 1.06641,-3.4335938 2.88282,-3.4335938 1.80468,0 2.85937,1.6875 2.85937,3.4335938 0,1.640625 -0.8789,3.4453125 -2.85937,3.4453125 -1.99219,0 -2.88282,-1.8046875 -2.88282,-3.4453125 z m 9.84375,4.593749975 h 1.69922 V -4.6289344 c 0,-1.7109375 0.67969,-3.3984375 2.41407,-3.3984375 1.35937,0 1.6289,1.4179688 1.6289,2.5546875 V -2.8125e-5 h 1.69922 V -4.6289344 c 0,-1.7109375 0.67969,-3.3984375 2.41406,-3.3984375 1.35938,0 1.62891,1.4179688 1.62891,2.5546875 V -2.8125e-5 h 1.69922 V -5.8828406 c 0,-2.0039063 -0.84375,-3.515625 -3.1875,-3.515625 -0.83203,0 -2.21485,0.46875 -2.84766,1.78125 -0.48047,-1.2421875 -1.54687,-1.78125 -2.61328,-1.78125 -1.34766,0 -2.26172,0.4921875 -2.90625,1.546875 h -0.0352 V -9.1758094 H 190.5082 Z M 206.5336,3.7851281 h 1.6875 v -5.0507812 h 0.0351 c 0.52735,0.85546872 1.44141,1.47656247 3.0586,1.47656247 2.77734,0 3.94921,-2.43749997 3.94921,-4.96874997 0,-2.4609375 -1.30078,-4.640625 -3.96093,-4.640625 -1.61719,0 -2.66016,0.8320312 -3.11719,1.5117187 h -0.0352 v -1.2890625 h -1.61718 z m 6.92578,-8.4140625 c 0.0351,1.4414063 -0.71485,3.4804688 -2.53125,3.4804688 -1.91016,0 -2.70703,-1.8984375 -2.70703,-3.421875 0,-1.7109375 0.89062,-3.4570313 2.71875,-3.4570313 1.83984,0 2.55468,1.7460938 2.51953,3.3984375 z m 4.2832,4.628906275 h 1.69922 V -13.500028 h -1.69922 z M 229.5668,-2.0742469 c -0.41016,0.3515625 -1.69922,0.9257813 -2.82422,0.9257813 -1.59375,0 -3.02344,-1.2421875 -3.02344,-3.0585938 h 6.55078 c 0,-2.953125 -0.98437,-5.1914062 -4.04297,-5.1914062 -2.58984,0 -4.30078,1.9335937 -4.30078,4.640625 0,2.9882812 1.48828,4.96874997 4.7461,4.96874997 1.51172,0 2.25,-0.3515625 2.89453,-0.5859375 z m -5.84766,-3.3984375 c 0.12891,-1.1835937 0.8086,-2.5546875 2.47266,-2.5546875 1.45312,0 2.28515,1.1484375 2.28515,2.5546875 z m 7.5586,5.472656275 h 2.01562 l 2.27344,-3.597656275 2.26172,3.597656275 h 2.09765 l -3.24609,-4.804687475 2.95312,-4.3710938 h -1.88671 l -2.03907,3.2695313 -1.99218,-3.2695313 h -2.10938 l 2.98828,4.3710938 z m 0,0"
       style="fill:#616365;fill-opacity:1;fill-rule:nonzero;stroke:none"
       aria-label="Namur Institute for Complex"
       transform="matrix(1.3333333,0,0,1.3333333,-1.44844,158.1016)" />
  </g>
</svg>
