<?xml version="1.0" encoding="UTF-8"?>
<!DOCTYPE svg PUBLIC "-//W3C//DTD SVG 1.1//EN" "http://www.w3.org/Graphics/SVG/1.1/DTD/svg11.dtd">
<!-- Creator: CorelDRAW 2021 (64-Bit) -->
<svg xmlns="http://www.w3.org/2000/svg" xml:space="preserve" width="2000px" height="540px" version="1.1" style="shape-rendering:geometricPrecision; text-rendering:geometricPrecision; image-rendering:optimizeQuality; fill-rule:evenodd; clip-rule:evenodd"
viewBox="0 0 200552000 54151000"
 xmlns:xlink="http://www.w3.org/1999/xlink"
 xmlns:xodm="http://www.corel.com/coreldraw/odm/2003">
 <defs>
  <style type="text/css">
   <![CDATA[
    .fil1 {fill:#00727D;fill-rule:nonzero}
    .fil2 {fill:#575756;fill-rule:nonzero}
    .fil0 {fill:#BED600;fill-rule:nonzero}
   ]]>
  </style>
 </defs>
 <g id="Ebene_x0020_1">
  <metadata id="CorelCorpID_0Corel-Layer"/>
  <polygon class="fil0" points="159521000,54151000 200552000,54151000 200552000,13097000 159521000,13097000 "/>
  <polygon class="fil1" points="87000,13209000 87000,54080000 8594000,54080000 8594000,42908000 7745000,23653000 18863000,54080000 24706000,54080000 35850000,23624000 35000000,42908000 35000000,54080000 43536000,54080000 43536000,13209000 32363000,13209000 21812000,42850000 11204000,13209000 "/>
  <path class="fil1" d="M84454000 54080000l-15247000 -40736000 -7778000 0 -15164000 40736000 8924000 0 2799000 -8393000 14716000 0 2825000 8393000 8925000 0 0 0zm-14895000 -15364000l-10183000 0 5063000 -15248000 5120000 15248000 0 0z"/>
  <polygon class="fil1" points="111744000,13209000 78453000,13209000 78453000,20030000 90803000,20030000 90803000,54080000 99224000,54080000 99224000,20030000 111744000,20030000 "/>
  <polygon class="fil1" points="148321000,13209000 139900000,13209000 139900000,29771000 123478000,29771000 123478000,13209000 115059000,13209000 115059000,54080000 123478000,54080000 123478000,36564000 139900000,36564000 139900000,54080000 148321000,54080000 "/>
  <polygon class="fil1" points="175556000,28774000 175556000,42427000 169830000,42427000 169830000,28774000 156003000,28774000 156003000,23038000 169830000,23038000 169830000,9187000 175556000,9187000 175556000,23038000 189213000,23038000 189213000,28774000 "/>
  <path class="fil2" d="M2375000 6871000c731000,0 1293000,-164000 1685000,-492000 392000,-328000 587000,-797000 587000,-1410000 0,-369000 -95000,-686000 -288000,-950000 -192000,-264000 -465000,-444000 -816000,-539000 310000,-131000 545000,-316000 707000,-555000 160000,-238000 241000,-506000 241000,-805000 0,-585000 -193000,-1024000 -577000,-1320000 -384000,-295000 -945000,-443000 -1682000,-443000l-2232000 0 0 6514000 2375000 0 0 0zm108000 -2940000c692000,16000 1038000,361000 1038000,1038000 0,313000 -100000,559000 -300000,735000 -200000,175000 -477000,264000 -833000,264000l-1256000 0 0 -2037000 1351000 0 0 0zm-1351000 -2660000l1100000 0c388000,0 673000,70000 857000,214000 184000,143000 275000,376000 275000,698000 0,292000 -99000,518000 -298000,678000 -198000,159000 -473000,239000 -825000,239000l-1109000 0 0 -1829000 0 0zm7763000 5450000c325000,-159000 583000,-384000 777000,-673000l-587000 -559000c-312000,402000 -718000,604000 -1216000,604000 -355000,0 -650000,-116000 -883000,-350000 -235000,-232000 -368000,-548000 -401000,-948000l3163000 0 0 -438000c0,-769000 -180000,-1364000 -539000,-1785000 -360000,-421000 -869000,-631000 -1528000,-631000 -415000,0 -791000,106000 -1127000,318000 -337000,212000 -599000,507000 -786000,888000 -186000,380000 -279000,811000 -279000,1295000l0 134000c0,722000 214000,1300000 642000,1734000 428000,434000 986000,651000 1675000,651000 403000,0 766000,-80000 1089000,-240000l0 0zm-511000 -3628000c169000,187000 266000,461000 290000,826000l0 80000 -2071000 0c50000,-372000 167000,-663000 351000,-872000 183000,-209000 424000,-314000 722000,-314000 302000,0 537000,94000 708000,280000l0 0zm4746000 -1090000c-102000,-41000 -230000,-62000 -385000,-62000 -465000,0 -829000,210000 -1091000,631000l-27000 -542000 -1038000 0 0 4841000 1087000 0 0 -3310000c173000,-382000 508000,-573000 1007000,-573000 151000,0 299000,12000 443000,36000l4000 -1021000 0 0zm1838000 -2003000l-1087000 0 0 6871000 1087000 0 0 -6871000zm2341000 2030000l-1088000 0 0 4841000 1088000 0 0 -4841000zm-996000 -847000c106000,108000 257000,163000 454000,163000 197000,0 349000,-55000 456000,-163000 107000,-109000 161000,-246000 161000,-409000 0,-167000 -54000,-306000 -161000,-417000 -107000,-110000 -259000,-165000 -456000,-165000 -197000,0 -348000,55000 -454000,165000 -106000,111000 -159000,250000 -159000,417000 0,163000 53000,300000 159000,409000zm2163000 847000l0 4841000 1087000 0 0 -3445000c215000,-396000 541000,-595000 980000,-595000 301000,0 518000,74000 651000,222000 132000,148000 198000,375000 198000,683000l0 3135000 1088000 0 0 -3199000c-18000,-1154000 -531000,-1731000 -1540000,-1731000 -581000,0 -1051000,217000 -1409000,649000l-31000 -560000 -1024000 0zm7498000 -1673000l0 6514000 1127000 0 0 -2147000 -112000 -2868000 1919000 5015000 810000 0 1924000 -5019000 -112000 2872000 0 2147000 1127000 0 0 -6514000 -1463000 0 -1874000 4993000 -1879000 -4993000 -1467000 0 0 0zm11918000 6514000l0 -76000c-123000,-260000 -184000,-606000 -184000,-1042000l0 -2183000c-9000,-516000 -182000,-917000 -519000,-1202000 -337000,-285000 -789000,-427000 -1355000,-427000 -373000,0 -711000,66000 -1014000,197000 -303000,131000 -542000,313000 -718000,543000 -176000,232000 -263000,480000 -263000,745000l1087000 0c0,-191000 78000,-348000 237000,-472000 157000,-123000 360000,-185000 608000,-185000 286000,0 499000,75000 639000,226000 141000,151000 211000,351000 211000,602000l0 317000 -667000 0c-713000,0 -1261000,138000 -1644000,413000 -383000,277000 -575000,673000 -575000,1188000 0,409000 154000,752000 461000,1029000 307000,278000 704000,417000 1190000,417000 501000,0 924000,-181000 1270000,-542000 37000,209000 79000,360000 126000,452000l1110000 0 0 0zm-2862000 -968000c-138000,-124000 -207000,-291000 -207000,-499000 0,-257000 101000,-455000 304000,-595000 203000,-141000 505000,-210000 908000,-210000l586000 0 0 912000c-96000,176000 -238000,316000 -427000,421000 -190000,104000 -392000,156000 -607000,156000 -232000,0 -418000,-62000 -557000,-185000zm4104000 -5049000l0 1176000 -796000 0 0 806000 796000 0 0 2742000c0,922000 418000,1383000 1253000,1383000 230000,0 468000,-35000 716000,-103000l0 -841000c-128000,29000 -256000,44000 -380000,44000 -189000,0 -319000,-41000 -392000,-122000 -73000,-83000 -110000,-216000 -110000,-401000l0 -2702000 855000 0 0 -806000 -855000 0 0 -1176000 -1087000 0 0 0zm3843000 -854000l-1087000 0 0 6871000 1087000 0 0 -3458000c215000,-387000 540000,-582000 975000,-582000 281000,0 493000,70000 639000,208000 144000,139000 216000,375000 216000,709000l0 3123000 1087000 0 0 -3162000c-15000,-1178000 -538000,-1768000 -1570000,-1768000 -543000,0 -992000,206000 -1347000,618000l0 -2559000 0 0zm7237000 6721000c323000,-159000 582000,-384000 776000,-673000l-587000 -559000c-313000,402000 -718000,604000 -1216000,604000 -355000,0 -650000,-116000 -884000,-350000 -234000,-232000 -367000,-548000 -400000,-948000l3162000 0 0 -438000c0,-769000 -179000,-1364000 -538000,-1785000 -360000,-421000 -869000,-631000 -1528000,-631000 -415000,0 -791000,106000 -1127000,318000 -338000,212000 -599000,507000 -786000,888000 -186000,380000 -279000,811000 -279000,1295000l0 134000c0,722000 214000,1300000 642000,1734000 428000,434000 986000,651000 1675000,651000 403000,0 766000,-80000 1090000,-240000l0 0zm-513000 -3628000c170000,187000 268000,461000 291000,826000l0 80000 -2071000 0c51000,-372000 167000,-663000 351000,-872000 183000,-209000 424000,-314000 723000,-314000 301000,0 536000,94000 706000,280000zm2206000 -1063000l0 4841000 1087000 0 0 -3507000c182000,-355000 490000,-533000 926000,-533000 566000,0 857000,285000 873000,855000l0 3185000 1086000 0 -4000 -3319000c62000,-215000 172000,-388000 328000,-522000 157000,-132000 359000,-199000 606000,-199000 311000,0 533000,72000 667000,216000 135000,142000 202000,367000 202000,674000l0 3150000 1087000 0 0 -3181000c-6000,-575000 -140000,-1010000 -401000,-1305000 -261000,-296000 -658000,-444000 -1192000,-444000 -638000,0 -1133000,248000 -1485000,743000 -239000,-495000 -682000,-743000 -1328000,-743000 -591000,0 -1056000,199000 -1396000,595000l-32000 -506000 -1024000 0 0 0zm11976000 4841000l0 -76000c-122000,-260000 -184000,-606000 -184000,-1042000l0 -2183000c-8000,-516000 -182000,-917000 -519000,-1202000 -337000,-285000 -788000,-427000 -1355000,-427000 -373000,0 -710000,66000 -1013000,197000 -303000,131000 -542000,313000 -718000,543000 -177000,232000 -265000,480000 -265000,745000l1088000 0c0,-191000 79000,-348000 237000,-472000 158000,-123000 360000,-185000 608000,-185000 286000,0 499000,75000 640000,226000 140000,151000 211000,351000 211000,602000l0 317000 -668000 0c-713000,0 -1260000,138000 -1644000,413000 -383000,277000 -574000,673000 -574000,1188000 0,409000 153000,752000 461000,1029000 306000,278000 703000,417000 1189000,417000 502000,0 925000,-181000 1271000,-542000 35000,209000 77000,360000 125000,452000l1110000 0 0 0zm-2861000 -968000c-139000,-124000 -208000,-291000 -208000,-499000 0,-257000 101000,-455000 304000,-595000 203000,-141000 505000,-210000 908000,-210000l587000 0 0 912000c-97000,176000 -239000,316000 -428000,421000 -190000,104000 -391000,156000 -606000,156000 -233000,0 -418000,-62000 -557000,-185000zm4091000 -5049000l0 1176000 -796000 0 0 806000 796000 0 0 2742000c0,922000 417000,1383000 1252000,1383000 230000,0 469000,-35000 716000,-103000l0 -841000c-128000,29000 -255000,44000 -380000,44000 -188000,0 -318000,-41000 -391000,-122000 -74000,-83000 -110000,-216000 -110000,-401000l0 -2702000 854000 0 0 -806000 -854000 0 0 -1176000 -1087000 0 0 0zm3928000 1176000l-1087000 0 0 4841000 1087000 0 0 -4841000zm-995000 -847000c105000,108000 257000,163000 453000,163000 197000,0 349000,-55000 457000,-163000 107000,-109000 160000,-246000 160000,-409000 0,-167000 -53000,-306000 -160000,-417000 -108000,-110000 -260000,-165000 -457000,-165000 -196000,0 -348000,55000 -453000,165000 -107000,111000 -159000,250000 -159000,417000 0,163000 52000,300000 159000,409000zm3346000 4523000c-190000,-258000 -284000,-649000 -284000,-1175000l0 -174000c2000,-519000 100000,-906000 291000,-1161000 190000,-255000 462000,-383000 813000,-383000 275000,0 501000,90000 678000,269000 178000,179000 273000,407000 284000,685000l1025000 0c-18000,-546000 -208000,-987000 -571000,-1323000 -362000,-335000 -831000,-503000 -1407000,-503000 -680000,0 -1216000,222000 -1610000,665000 -394000,443000 -590000,1032000 -590000,1769000l0 112000c0,773000 198000,1377000 594000,1816000 397000,438000 934000,658000 1611000,658000 349000,0 674000,-77000 975000,-228000 302000,-152000 540000,-359000 716000,-621000 176000,-260000 270000,-541000 282000,-842000l-1025000 0c-11000,232000 -107000,427000 -286000,585000 -179000,159000 -404000,238000 -676000,238000 -357000,0 -631000,-129000 -820000,-387000l0 0zm6118000 277000c-150000,109000 -367000,163000 -653000,163000 -296000,0 -533000,-69000 -712000,-207000 -179000,-140000 -276000,-337000 -291000,-593000l-1055000 0c0,289000 86000,559000 259000,809000 173000,250000 414000,448000 725000,590000 309000,144000 663000,216000 1060000,216000 585000,0 1057000,-135000 1418000,-405000 361000,-270000 541000,-623000 541000,-1058000 0,-260000 -59000,-481000 -177000,-662000 -117000,-182000 -298000,-338000 -541000,-467000 -243000,-130000 -578000,-243000 -1004000,-337000 -427000,-93000 -710000,-187000 -850000,-279000 -140000,-92000 -210000,-222000 -210000,-389000 0,-185000 75000,-333000 225000,-443000 151000,-111000 346000,-166000 585000,-166000 256000,0 462000,70000 617000,209000 155000,138000 232000,312000 232000,521000l1087000 0c0,-457000 -178000,-828000 -534000,-1115000 -357000,-286000 -824000,-429000 -1402000,-429000 -543000,0 -991000,140000 -1342000,421000 -353000,280000 -529000,629000 -529000,1046000 0,498000 272000,879000 815000,1141000 247000,119000 556000,218000 926000,295000 370000,78000 634000,168000 794000,269000 159000,102000 239000,249000 239000,443000 0,176000 -74000,319000 -223000,427000l0 0zm8325000 888000l1212000 0 0 -57000 -1463000 -2713000c376000,-159000 669000,-385000 879000,-679000 211000,-294000 316000,-658000 316000,-1094000 0,-639000 -204000,-1127000 -613000,-1464000 -409000,-338000 -989000,-507000 -1741000,-507000l-2290000 0 0 6514000 1132000 0 0 -2506000 1261000 0 1307000 2506000 0 0zm-2568000 -5600000l1194000 0c394000,5000 690000,103000 889000,295000 198000,190000 297000,460000 297000,809000 0,334000 -108000,598000 -322000,790000 -215000,192000 -513000,288000 -895000,288000l-1163000 0 0 -2182000 0 0zm7701000 5450000c324000,-159000 582000,-384000 777000,-673000l-586000 -559000c-314000,402000 -719000,604000 -1218000,604000 -354000,0 -649000,-116000 -883000,-350000 -234000,-232000 -368000,-548000 -400000,-948000l3163000 0 0 -438000c0,-769000 -180000,-1364000 -540000,-1785000 -359000,-421000 -868000,-631000 -1527000,-631000 -415000,0 -791000,106000 -1128000,318000 -336000,212000 -598000,507000 -785000,888000 -186000,380000 -280000,811000 -280000,1295000l0 134000c0,722000 215000,1300000 642000,1734000 429000,434000 987000,651000 1676000,651000 402000,0 766000,-80000 1089000,-240000l0 0zm-512000 -3628000c170000,187000 267000,461000 291000,826000l0 80000 -2071000 0c50000,-372000 167000,-663000 351000,-872000 183000,-209000 424000,-314000 722000,-314000 301000,0 537000,94000 707000,280000zm4697000 2890000c-149000,109000 -366000,163000 -653000,163000 -295000,0 -533000,-69000 -711000,-207000 -179000,-140000 -276000,-337000 -291000,-593000l-1056000 0c0,289000 87000,559000 260000,809000 172000,250000 415000,448000 725000,590000 310000,144000 663000,216000 1060000,216000 584000,0 1057000,-135000 1418000,-405000 361000,-270000 541000,-623000 541000,-1058000 0,-260000 -59000,-481000 -176000,-662000 -118000,-182000 -299000,-338000 -542000,-467000 -243000,-130000 -578000,-243000 -1004000,-337000 -427000,-93000 -710000,-187000 -850000,-279000 -140000,-92000 -211000,-222000 -211000,-389000 0,-185000 76000,-333000 227000,-443000 150000,-111000 345000,-166000 583000,-166000 257000,0 463000,70000 618000,209000 154000,138000 232000,312000 232000,521000l1087000 0c0,-457000 -178000,-828000 -534000,-1115000 -357000,-286000 -824000,-429000 -1403000,-429000 -543000,0 -990000,140000 -1342000,421000 -352000,280000 -528000,629000 -528000,1046000 0,498000 271000,879000 815000,1141000 247000,119000 556000,218000 925000,295000 371000,78000 635000,168000 795000,269000 159000,102000 239000,249000 239000,443000 0,176000 -74000,319000 -224000,427000l0 0zm5461000 738000c323000,-159000 582000,-384000 776000,-673000l-587000 -559000c-313000,402000 -718000,604000 -1216000,604000 -355000,0 -650000,-116000 -884000,-350000 -234000,-232000 -367000,-548000 -400000,-948000l3162000 0 0 -438000c0,-769000 -179000,-1364000 -538000,-1785000 -360000,-421000 -869000,-631000 -1528000,-631000 -415000,0 -791000,106000 -1127000,318000 -338000,212000 -599000,507000 -786000,888000 -186000,380000 -279000,811000 -279000,1295000l0 134000c0,722000 214000,1300000 642000,1734000 428000,434000 986000,651000 1675000,651000 403000,0 766000,-80000 1090000,-240000l0 0zm-513000 -3628000c170000,187000 267000,461000 291000,826000l0 80000 -2071000 0c51000,-372000 167000,-663000 351000,-872000 183000,-209000 424000,-314000 722000,-314000 302000,0 537000,94000 707000,280000zm6209000 3778000l0 -76000c-122000,-260000 -183000,-606000 -183000,-1042000l0 -2183000c-8000,-516000 -181000,-917000 -519000,-1202000 -337000,-285000 -789000,-427000 -1355000,-427000 -373000,0 -711000,66000 -1014000,197000 -303000,131000 -541000,313000 -718000,543000 -175000,232000 -264000,480000 -264000,745000l1088000 0c0,-191000 78000,-348000 237000,-472000 158000,-123000 360000,-185000 608000,-185000 287000,0 500000,75000 640000,226000 140000,151000 210000,351000 210000,602000l0 317000 -667000 0c-712000,0 -1261000,138000 -1643000,413000 -384000,277000 -575000,673000 -575000,1188000 0,409000 153000,752000 460000,1029000 308000,278000 704000,417000 1190000,417000 501000,0 925000,-181000 1271000,-542000 36000,209000 78000,360000 125000,452000l1109000 0 0 0zm-2861000 -968000c-139000,-124000 -207000,-291000 -207000,-499000 0,-257000 101000,-455000 304000,-595000 203000,-141000 506000,-210000 908000,-210000l586000 0 0 912000c-96000,176000 -239000,316000 -427000,421000 -190000,104000 -392000,156000 -606000,156000 -233000,0 -419000,-62000 -558000,-185000l0 0zm6355000 -3900000c-101000,-41000 -229000,-62000 -383000,-62000 -467000,0 -830000,210000 -1093000,631000l-27000 -542000 -1037000 0 0 4841000 1086000 0 0 -3310000c173000,-382000 509000,-573000 1007000,-573000 153000,0 300000,12000 443000,36000l4000 -1021000 0 0zm1766000 3703000c-190000,-258000 -285000,-649000 -285000,-1175000l0 -174000c4000,-519000 100000,-906000 291000,-1161000 191000,-255000 463000,-383000 814000,-383000 275000,0 500000,90000 678000,269000 178000,179000 272000,407000 284000,685000l1025000 0c-18000,-546000 -209000,-987000 -571000,-1323000 -362000,-335000 -831000,-503000 -1407000,-503000 -679000,0 -1217000,222000 -1610000,665000 -394000,443000 -591000,1032000 -591000,1769000l0 112000c0,773000 199000,1377000 595000,1816000 397000,438000 933000,658000 1610000,658000 350000,0 674000,-77000 976000,-228000 300000,-152000 539000,-359000 715000,-621000 177000,-260000 271000,-541000 283000,-842000l-1025000 0c-12000,232000 -107000,427000 -286000,585000 -179000,159000 -405000,238000 -676000,238000 -358000,0 -632000,-129000 -820000,-387000l0 0zm4698000 -5706000l-1086000 0 0 6871000 1086000 0 0 -3458000c215000,-387000 541000,-582000 975000,-582000 283000,0 494000,70000 638000,208000 145000,139000 218000,375000 218000,709000l0 3123000 1086000 0 0 -3162000c-14000,-1178000 -538000,-1768000 -1570000,-1768000 -543000,0 -991000,206000 -1347000,618000l0 -2559000 0 0zm10246000 4751000c-60000,465000 -202000,798000 -426000,998000 -224000,200000 -557000,299000 -1002000,299000 -485000,0 -856000,-185000 -1107000,-555000 -252000,-370000 -378000,-908000 -378000,-1612000l0 -578000c6000,-696000 140000,-1223000 405000,-1583000 264000,-359000 642000,-539000 1134000,-539000 423000,0 745000,103000 964000,310000 219000,208000 356000,545000 410000,1014000l1127000 0c-71000,-713000 -327000,-1264000 -765000,-1653000 -440000,-389000 -1017000,-584000 -1736000,-584000 -534000,0 -1003000,126000 -1410000,380000 -409000,254000 -721000,615000 -938000,1083000 -218000,468000 -327000,1010000 -327000,1624000l0 608000c9000,600000 121000,1126000 336000,1579000 215000,454000 519000,803000 914000,1050000 395000,245000 853000,369000 1371000,369000 744000,0 1338000,-195000 1786000,-585000 447000,-388000 703000,-930000 769000,-1625000l-1127000 0 0 0zm5254000 1970000c324000,-159000 582000,-384000 776000,-673000l-586000 -559000c-314000,402000 -719000,604000 -1216000,604000 -356000,0 -651000,-116000 -884000,-350000 -234000,-232000 -368000,-548000 -402000,-948000l3163000 0 0 -438000c0,-769000 -178000,-1364000 -538000,-1785000 -360000,-421000 -869000,-631000 -1528000,-631000 -414000,0 -790000,106000 -1128000,318000 -336000,212000 -599000,507000 -784000,888000 -187000,380000 -279000,811000 -279000,1295000l0 134000c0,722000 213000,1300000 641000,1734000 428000,434000 987000,651000 1675000,651000 403000,0 766000,-80000 1090000,-240000l0 0zm-512000 -3628000c169000,187000 267000,461000 290000,826000l0 80000 -2071000 0c50000,-372000 168000,-663000 351000,-872000 184000,-209000 424000,-314000 723000,-314000 301000,0 536000,94000 707000,280000zm2192000 -1063000l0 4841000 1087000 0 0 -3445000c215000,-396000 541000,-595000 979000,-595000 302000,0 519000,74000 651000,222000 133000,148000 200000,375000 200000,683000l0 3135000 1087000 0 0 -3199000c-18000,-1154000 -531000,-1731000 -1540000,-1731000 -581000,0 -1051000,217000 -1409000,649000l-31000 -560000 -1024000 0zm5386000 -1176000l0 1176000 -796000 0 0 806000 796000 0 0 2742000c0,922000 418000,1383000 1253000,1383000 229000,0 467000,-35000 716000,-103000l0 -841000c-129000,29000 -255000,44000 -381000,44000 -188000,0 -319000,-41000 -392000,-122000 -72000,-83000 -109000,-216000 -109000,-401000l0 -2702000 855000 0 0 -806000 -855000 0 0 -1176000 -1087000 0 0 0zm5992000 5867000c324000,-159000 583000,-384000 777000,-673000l-587000 -559000c-313000,402000 -718000,604000 -1217000,604000 -353000,0 -649000,-116000 -883000,-350000 -234000,-232000 -368000,-548000 -400000,-948000l3163000 0 0 -438000c0,-769000 -180000,-1364000 -539000,-1785000 -360000,-421000 -869000,-631000 -1528000,-631000 -415000,0 -791000,106000 -1127000,318000 -338000,212000 -600000,507000 -786000,888000 -186000,380000 -279000,811000 -279000,1295000l0 134000c0,722000 214000,1300000 642000,1734000 428000,434000 985000,651000 1675000,651000 403000,0 766000,-80000 1089000,-240000l0 0zm-512000 -3628000c169000,187000 267000,461000 291000,826000l0 80000 -2072000 0c52000,-372000 168000,-663000 352000,-872000 183000,-209000 424000,-314000 723000,-314000 300000,0 536000,94000 706000,280000l0 0zm4747000 -1090000c-101000,-41000 -230000,-62000 -385000,-62000 -465000,0 -829000,210000 -1091000,631000l-28000 -542000 -1036000 0 0 4841000 1086000 0 0 -3310000c173000,-382000 508000,-573000 1006000,-573000 152000,0 299000,12000 444000,36000l4000 -1021000 0 0z"/>
 </g>
</svg>
